<svg xmlns="http://www.w3.org/2000/svg" width="545.987" height="495.288" viewBox="0 0 154.09 139.781"><g style="display:inline"><path style="fill:#000;stroke:#b1b1b1;stroke-width:3;stroke-linecap:butt;stroke-linejoin:round;stroke-miterlimit:4;stroke-dasharray:none;stroke-opacity:1" d="m92.54 180.296-.127 30.446c-.04 8.18.795 9.265 9.282 9.359h67.452c6.644-.094 7.951-1.474 8.052-8.123l-.09-115.427c-.01-11.292-1.843-13.165-13.174-13.15-20.548.023-39.2-.154-60.67-.046-7.317 0-10.891.935-10.969 10.87l-.285 29.16h19.644v6.04c-2.513 1.625-4.827 3.848-5.735 7.546-.223.778-.251 1.587-.204 2.332.268 4.065 2.918 8.28 8.572 8.921.728.073 1.441.113 2.12.06 4.26-.34 8.68-3.972 8.622-9.447a8 8 0 0 0-.219-1.795c-.865-3.822-3.196-5.808-5.806-7.483l-.134-6.174 17.503.265c3.324.437 4.515 2.471 4.768 4.405l.046 19.222h2.94c2.56-3.32 5.839-4.81 9.45-4.722 5.016.438 7.932 4.164 8.501 7.314.126 1.24.168 2.431.013 3.576-.724 5.25-5.51 8.034-8.592 8.328-.572.04-1.095.038-1.624.021-3.49-.158-6.118-1.82-7.748-5.255h-2.94l-.132 18.157c.22 3.465-2.514 5.352-4.522 5.428z" transform="translate(-24.61 -81.82)"/><path style="fill:#87cdde;stroke:#000;stroke-width:0;stroke-linecap:butt;stroke-linejoin:miter;stroke-miterlimit:4;stroke-dasharray:none;stroke-opacity:1" d="M96.021 97.07h75.571v108.857l-75.14.215-.431-21.408 43.293-.216c3.406 0 6.213-3.6 6.213-5.638l.216-14.365c13.925 6.253 21.612-3.689 20.844-13.39-.509-6.436-3.197-11.369-11.7-12.813-3.289-.477-6.056.874-9.443 2.518l.243-15.294c0-3.655-6.305-6.317-8.254-6.317l-41.627-.215z" transform="translate(-24.61 -81.82)"/></g><g style="display:inline"><path style="fill:#000;fill-opacity:1;stroke:#b2b2b2;stroke-width:3;stroke-linecap:butt;stroke-linejoin:round;stroke-miterlimit:4;stroke-dasharray:none;stroke-opacity:1" d="M26.11 178.96v-56.91h19.643v6.04c-3.82 2.298-5.636 5.448-5.943 8.57-.108 7.06 4.988 10.11 9.405 10.278 5.397.205 10.301-3.896 9.951-10.25-.271-3.152-2.256-6.269-6.063-8.464l-.133-6.175h15.635c3.856-.114 6.682 2.156 6.682 6.32v17.572h2.94c2.374-3.348 5.871-4.82 9.151-4.665 5.933.223 8.909 4.829 8.88 9.473-.027 4.676-3.1 9.392-9.269 9.714-3.083-.038-6.368-.698-8.762-5.26h-2.94v18.131c0 3.458-2.688 5.627-5.469 5.627z" transform="translate(-24.61 -81.82)"/></g></svg>